<?xml version="1.0" encoding="UTF-8"?>
<svg width="250px" height="250px" viewBox="0 0 250 250" version="1.1" xmlns="http://www.w3.org/2000/svg" xmlns:xlink="http://www.w3.org/1999/xlink">
    <!-- Generator: Sketch 52.5 (67469) - http://www.bohemiancoding.com/sketch -->
    <title>A Logo</title>
    <desc>Created with Sketch.</desc>
    <g id="A-Logo" stroke="none" stroke-width="1" fill="none" fill-rule="evenodd">
        <g id="Group" transform="translate(11.000000, 19.000000)" fill="#000000">
            <path d="M175.605553,120.977774 L208.933594,211.376953 L181.248047,211.376953 L154.89789,135.896988 C150.140751,139.014757 145.202904,142.057388 140.101211,145.002852 C114.886349,159.56066 89.6171075,169.465478 67.6147103,174.284304 L54.6855469,211.376953 L27,211.376953 L39.429216,177.663873 C22.0039892,177.669419 8.95915509,172.858148 3.18297198,162.853506 C-10.7611717,138.70154 22.6855633,92.9976358 78.6183368,58.2829826 L69.4798683,82.7401209 C37.6374854,106.147569 19.1692162,130.542493 26.1637341,142.657353 C35.0002901,157.962717 81.1308785,147.872475 129.199287,120.120166 C177.267696,92.3678576 209.071396,57.4627173 200.23484,42.1573533 C194.864002,32.8547891 175.716078,32.9338185 150.729647,40.6580191 L145.807144,27.4840028 C183.415202,16.3492435 214.206498,18.356975 224.01945,35.3535058 C235.537497,55.3033486 214.720849,89.9580334 175.605552,120.977766 Z M143.546244,103.380224 L120.383982,37.0319765 L114.6997,39.2015499 L81.2245756,135.23878 C78.0336301,136.379167 75.1265903,137.335313 72.5200855,138.135792 C63.7390793,140.832512 57.2187432,142.165188 52.3119715,142.720609 L104.929688,0 L131.003906,0 L163.60386,88.4243108 C158.195583,92.8631053 151.472285,98.0083894 143.546244,103.380224 Z" id="Combined-Shape"></path>
        </g>
    </g>
</svg>